<?xml version="1.0" encoding="utf-8"?>
<?xml-stylesheet type="text/xsl" href="rss1.xsl"?>
<rss version="2.0" xmlns:atom="http://www.w3.org/2005/Atom" xmlns:content="http://purl.org/rss/1.0/modules/content/" xmlns:dc="http://purl.org/dc/elements/1.1/" xmlns:media="http://search.yahoo.com/mrss/">
<channel>
 <title>Getty</title>
 <link>http://www.gettyimg.com/</link>
 <atom:link href="http://www.gettyimg.com/" rel="self" type="application/rss+xml" />

 
                <item>
                <title><![CDATA[【Documentaries】WEB-DL - BTS Monuments: Beyond The Star | Episode 1 &amp; 2 - 720p DSNP WEB-DL DDP5.1 H.264 - liljaa]]></title>
                <link><![CDATA[https://sharemania.us/threads/bts-monuments-beyond-the-star-episode-1-2-720p-dsnp-web-dl-ddp5-1-h-264-liljaa.234312/]]></link>
                <description><![CDATA[<article>
<blockquote class="messageText SelectQuoteContainer ugc baseHtml">
<div class="bbCodeBlock bbCodeQuote">
<aside>
<blockquote class="quoteContainer"><div class="quote"><i>BTS mark its 10th anniversary as 21st-century pop icons. Join their journey to the top and beyond.</i></div><div class="quoteExpand">Click to expand...</div></blockquote>
</aside>
</div><b>Episode 1/8 – The Beginning</b><br>
<img src="https://images2.imgbox.com/da/81/l1Y6jDX3_o.jpg" class="bbCodeImage LbImage" alt="[​IMG]" data-url="https://images2.imgbox.com/da/81/l1Y6jDX3_o.jpg" style=""><br>
<br>
<div class="ToggleTriggerAnchor bbCodeSpoilerContainer">
<button type="button" class="button bbCodeSpoilerButton ToggleTrigger Tooltip JsOnly" data-target="> .SpoilerTarget"><span>Spoiler: <span class="SpoilerTitle">MediaInfo</span></span></button>
<div class="SpoilerTarget bbCodeSpoilerText">MediaInfo<br>
<div class="bbCodeBlock bbCodeCode">
<div class="type">Code:</div>
<pre>General
Complete name                            : 01. BTS Monuments Beyond The Star - Episode 1 – The Beginning.mp4
Format                                   : MPEG-4
Format profile                           : Base Media
Codec ID                                 : isom (isom/dby1/iso2/avc1/mp41)
File size                                : 881 MiB
Duration                                 : 32 min 32 s
Overall bit rate mode                    : Variable
Overall bit rate                         : 3 787 kb/s
Frame rate                               : 23.976 FPS
Movie name                               : BTS Monuments: Beyond The Star - Episode 1 – The Beginning
Performer                                : BTS
Recorded date                            : 2023
Writing application                      : Lavf60.3.100
Cover                                    : Yes
Comment                                  : Download by liljaa

Video
ID                                       : 1
Format                                   : AVC
Format/Info                              : Advanced Video Codec
Format profile                           : High@L3.1
Format settings                          : CABAC / 4 Ref Frames
Format settings, CABAC                   : Yes
Format settings, Reference frames        : 4 frames
Codec ID                                 : avc1
Codec ID/Info                            : Advanced Video Coding
Duration                                 : 32 min 32 s
Bit rate mode                            : Variable
Bit rate                                 : 3 521 kb/s
Maximum bit rate                         : 6 375 kb/s
Width                                    : 1 280 pixels
Height                                   : 720 pixels
Display aspect ratio                     : 16:9
Frame rate mode                          : Constant
Frame rate                               : 23.976 (24000/1001) FPS
Color space                              : YUV
Chroma subsampling                       : 4:2:0
Bit depth                                : 8 bits
Scan type                                : Progressive
Bits/(Pixel*Frame)                       : 0.159
Time code of first frame                 : 00:00:00:0000000000
Stream size                              : 820 MiB (93%)
Title                                    : BAMTech video
Color range                              : Limited
Color primaries                          : BT.709
Transfer characteristics                 : BT.709
Matrix coefficients                      : BT.709
Codec configuration box                  : avcC

Audio
ID                                       : 3
Format                                   : E-AC-3
Format/Info                              : Enhanced AC-3
Commercial name                          : Dolby Digital Plus
Codec ID                                 : ec-3
Duration                                 : 32 min 32 s
Bit rate mode                            : Constant
Bit rate                                 : 256 kb/s
Channel(s)                               : 6 channels
Channel layout                           : L R C LFE Ls Rs
Sampling rate                            : 48.0 kHz
Frame rate                               : 31.250 FPS (1536 SPF)
Compression mode                         : Lossy
Stream size                              : 59.6 MiB (7%)
Title                                    : BAMTech audio / Korean
Language                                 : Korean
Service kind                             : Complete Main
Default                                  : Yes
Alternate group                          : 1

Text #1
ID                                       : 4
Format                                   : Timed Text
Muxing mode                              : sbtl
Codec ID                                 : tx3g
Duration                                 : 32 min 32 s
Bit rate mode                            : Variable
Bit rate                                 : 88 b/s
Frame rate                               : 0.557 FPS
Stream size                              : 20.9 KiB (0%)
Title                                    : Chinese (Traditional)
Language                                 : Chinese
Default                                  : No
Forced                                   : No
Alternate group                          : 3
Count of events                          : 543

Text #2
ID                                       : 5
Format                                   : Timed Text
Muxing mode                              : sbtl
Codec ID                                 : tx3g
Duration                                 : 32 min 32 s
Bit rate mode                            : Variable
Bit rate                                 : 97 b/s
Frame rate                               : 0.553 FPS
Stream size                              : 23.0 KiB (0%)
Title                                    : Dansk
Language                                 : Danish
Default                                  : No
Forced                                   : No
Alternate group                          : 3
Count of events                          : 539

Text #3
ID                                       : 6
Format                                   : Timed Text
Muxing mode                              : sbtl
Codec ID                                 : tx3g
Duration                                 : 32 min 32 s
Bit rate mode                            : Variable
Bit rate                                 : 99 b/s
Frame rate                               : 0.557 FPS
Stream size                              : 23.7 KiB (0%)
Title                                    : Deutsch
Language                                 : German
Default                                  : No
Forced                                   : No
Alternate group                          : 3
Count of events                          : 543

Text #4
ID                                       : 7
Format                                   : Timed Text
Muxing mode                              : sbtl
Codec ID                                 : tx3g
Duration                                 : 32 min 32 s
Bit rate mode                            : Variable
Bit rate                                 : 118 b/s
Frame rate                               : 0.639 FPS
Stream size                              : 28.0 KiB (0%)
Title                                    : English [CC]
Language                                 : English
Default                                  : No
Forced                                   : No
Alternate group                          : 3
Count of events                          : 623

Text #5
ID                                       : 8
Format                                   : Timed Text
Muxing mode                              : sbtl
Codec ID                                 : tx3g
Duration                                 : 32 min 32 s
Bit rate mode                            : Variable
Bit rate                                 : 97 b/s
Frame rate                               : 0.556 FPS
Stream size                              : 23.1 KiB (0%)
Title                                    : Español
Language                                 : Spanish
Default                                  : No
Forced                                   : No
Alternate group                          : 3
Count of events                          : 542

Text #6
ID                                       : 9
Format                                   : Timed Text
Muxing mode                              : sbtl
Codec ID                                 : tx3g
Duration                                 : 32 min 32 s
Bit rate mode                            : Variable
Bit rate                                 : 100 b/s
Frame rate                               : 0.554 FPS
Stream size                              : 23.8 KiB (0%)
Title                                    : Español (Latinoamericano)
Language                                 : Spanish
Default                                  : No
Forced                                   : No
Alternate group                          : 3
Count of events                          : 540

Text #7
ID                                       : 10
Format                                   : Timed Text
Muxing mode                              : sbtl
Codec ID                                 : tx3g
Duration                                 : 32 min 32 s
Bit rate mode                            : Variable
Bit rate                                 : 103 b/s
Frame rate                               : 0.556 FPS
Stream size                              : 24.5 KiB (0%)
Title                                    : Français
Language                                 : French
Default                                  : No
Forced                                   : No
Alternate group                          : 3
Count of events                          : 542

Text #8
ID                                       : 11
Format                                   : Timed Text
Muxing mode                              : sbtl
Codec ID                                 : tx3g
Duration                                 : 32 min 32 s
Bit rate mode                            : Variable
Bit rate                                 : 157 b/s
Frame rate                               : 0.556 FPS
Stream size                              : 37.5 KiB (0%)
Title                                    : Greek
Language                                 : Greek
Default                                  : No
Forced                                   : No
Alternate group                          : 3
Count of events                          : 542

Text #9
ID                                       : 12
Format                                   : Timed Text
Muxing mode                              : sbtl
Codec ID                                 : tx3g
Duration                                 : 32 min 32 s
Bit rate mode                            : Variable
Bit rate                                 : 95 b/s
Frame rate                               : 0.555 FPS
Stream size                              : 22.7 KiB (0%)
Title                                    : Italiano
Language                                 : Italian
Default                                  : No
Forced                                   : No
Alternate group                          : 3
Count of events                          : 541

Text #10
ID                                       : 13
Format                                   : Timed Text
Muxing mode                              : sbtl
Codec ID                                 : tx3g
Duration                                 : 32 min 32 s
Bit rate mode                            : Variable
Bit rate                                 : 102 b/s
Frame rate                               : 0.527 FPS
Stream size                              : 24.4 KiB (0%)
Title                                    : Japanese
Language                                 : Japanese
Default                                  : No
Forced                                   : No
Alternate group                          : 3
Count of events                          : 516

Text #11
ID                                       : 14
Format                                   : Timed Text
Muxing mode                              : sbtl
Codec ID                                 : tx3g
Duration                                 : 32 min 32 s
Bit rate mode                            : Variable
Bit rate                                 : 9 b/s
Frame rate                               : 0.051 FPS
Stream size                              : 2.12 KiB (0%)
Title                                    : ko--forced--
Language                                 : Korean
Default                                  : No
Forced                                   : No
Alternate group                          : 3
Count of events                          : 49

Text #12
ID                                       : 15
Format                                   : Timed Text
Muxing mode                              : sbtl
Codec ID                                 : tx3g
Duration                                 : 32 min 32 s
Bit rate mode                            : Variable
Bit rate                                 : 127 b/s
Frame rate                               : 0.641 FPS
Stream size                              : 30.3 KiB (0%)
Title                                    : Korean [CC]
Language                                 : Korean
Default                                  : No
Forced                                   : No
Alternate group                          : 3
Count of events                          : 625

Text #13
ID                                       : 16
Format                                   : Timed Text
Muxing mode                              : sbtl
Codec ID                                 : tx3g
Duration                                 : 32 min 32 s
Bit rate mode                            : Variable
Bit rate                                 : 104 b/s
Frame rate                               : 0.555 FPS
Stream size                              : 24.7 KiB (0%)
Title                                    : Magyar
Language                                 : Hungarian
Default                                  : No
Forced                                   : No
Alternate group                          : 3
Count of events                          : 541

Text #14
ID                                       : 17
Format                                   : Timed Text
Muxing mode                              : sbtl
Codec ID                                 : tx3g
Duration                                 : 32 min 32 s
Bit rate mode                            : Variable
Bit rate                                 : 99 b/s
Frame rate                               : 0.558 FPS
Stream size                              : 23.6 KiB (0%)
Title                                    : Nederlands
Language                                 : Dutch
Default                                  : No
Forced                                   : No
Alternate group                          : 3
Count of events                          : 544

Text #15
ID                                       : 18
Format                                   : Timed Text
Muxing mode                              : sbtl
Codec ID                                 : tx3g
Duration                                 : 32 min 32 s
Bit rate mode                            : Variable
Bit rate                                 : 96 b/s
Frame rate                               : 0.551 FPS
Stream size                              : 22.8 KiB (0%)
Title                                    : Norsk
Language                                 : Norwegian
Default                                  : No
Forced                                   : No
Alternate group                          : 3
Count of events                          : 537

Text #16
ID                                       : 19
Format                                   : Timed Text
Muxing mode                              : sbtl
Codec ID                                 : tx3g
Duration                                 : 32 min 32 s
Bit rate mode                            : Variable
Bit rate                                 : 93 b/s
Frame rate                               : 0.557 FPS
Stream size                              : 22.3 KiB (0%)
Title                                    : Polski
Language                                 : Polish
Default                                  : No
Forced                                   : No
Alternate group                          : 3
Count of events                          : 543

Text #17
ID                                       : 20
Format                                   : Timed Text
Muxing mode                              : sbtl
Codec ID                                 : tx3g
Duration                                 : 32 min 32 s
Bit rate mode                            : Variable
Bit rate                                 : 94 b/s
Frame rate                               : 0.556 FPS
Stream size                              : 22.5 KiB (0%)
Title                                    : Português
Language                                 : Portuguese
Default                                  : No
Forced                                   : No
Alternate group                          : 3
Count of events                          : 542

Text #18
ID                                       : 21
Format                                   : Timed Text
Muxing mode                              : sbtl
Codec ID                                 : tx3g
Duration                                 : 32 min 32 s
Bit rate mode                            : Variable
Bit rate                                 : 95 b/s
Frame rate                               : 0.556 FPS
Stream size                              : 22.6 KiB (0%)
Title                                    : Português (Brasil)
Language                                 : Portuguese
Default                                  : No
Forced                                   : No
Alternate group                          : 3
Count of events                          : 542

Text #19
ID                                       : 22
Format                                   : Timed Text
Muxing mode                              : sbtl
Codec ID                                 : tx3g
Duration                                 : 32 min 32 s
Bit rate mode                            : Variable
Bit rate                                 : 104 b/s
Frame rate                               : 0.553 FPS
Stream size                              : 24.8 KiB (0%)
Title                                    : Română
Language                                 : Romanian
Default                                  : No
Forced                                   : No
Alternate group                          : 3
Count of events                          : 539

Text #20
ID                                       : 23
Format                                   : Timed Text
Muxing mode                              : sbtl
Codec ID                                 : tx3g
Duration                                 : 32 min 32 s
Bit rate mode                            : Variable
Bit rate                                 : 106 b/s
Frame rate                               : 0.553 FPS
Stream size                              : 25.4 KiB (0%)
Title                                    : Slovenčina
Language                                 : Slovak
Default                                  : No
Forced                                   : No
Alternate group                          : 3
Count of events                          : 539

Text #21
ID                                       : 24
Format                                   : Timed Text
Muxing mode                              : sbtl
Codec ID                                 : tx3g
Duration                                 : 32 min 32 s
Bit rate mode                            : Variable
Bit rate                                 : 96 b/s
Frame rate                               : 0.556 FPS
Stream size                              : 22.9 KiB (0%)
Title                                    : Suomi
Language                                 : Finnish
Default                                  : No
Forced                                   : No
Alternate group                          : 3
Count of events                          : 542

Text #22
ID                                       : 25
Format                                   : Timed Text
Muxing mode                              : sbtl
Codec ID                                 : tx3g
Duration                                 : 32 min 32 s
Bit rate mode                            : Variable
Bit rate                                 : 90 b/s
Frame rate                               : 0.537 FPS
Stream size                              : 21.4 KiB (0%)
Title                                    : Svenska
Language                                 : Swedish
Default                                  : Yes
Forced                                   : No
Alternate group                          : 3
Count of events                          : 524

Text #23
ID                                       : 26
Format                                   : Timed Text
Muxing mode                              : sbtl
Codec ID                                 : tx3g
Duration                                 : 32 min 32 s
Bit rate mode                            : Variable
Bit rate                                 : 102 b/s
Frame rate                               : 0.553 FPS
Stream size                              : 24.2 KiB (0%)
Title                                    : Türkçe
Language                                 : Turkish
Default                                  : No
Forced                                   : No
Alternate group                          : 3
Count of events                          : 539

Text #24
ID                                       : 27
Format                                   : Timed Text
Muxing mode                              : sbtl
Codec ID                                 : tx3g
Duration                                 : 32 min 32 s
Bit rate mode                            : Variable
Bit rate                                 : 97 b/s
Frame rate                               : 0.553 FPS
Stream size                              : 23.1 KiB (0%)
Title                                    : Čeština
Language                                 : Czech
Default                                  : No
Forced                                   : No
Alternate group                          : 3
Count of events                          : 539
</pre>
</div></div>
</div><br>
<b>Episode 2/8 – Adolescence</b><br>
<img src="https://images2.imgbox.com/21/2b/FQ0VMPmG_o.jpg" class="bbCodeImage LbImage" alt="[​IMG]" data-url="https://images2.imgbox.com/21/2b/FQ0VMPmG_o.jpg" style=""><br>
<br>
<div class="ToggleTriggerAnchor bbCodeSpoilerContainer">
<button type="button" class="button bbCodeSpoilerButton ToggleTrigger Tooltip JsOnly" data-target="> .SpoilerTarget"><span>Spoiler: <span class="SpoilerTitle">MediaInfo</span></span></button>
<div class="SpoilerTarget bbCodeSpoilerText">MediaInfo<br>
<div class="bbCodeBlock bbCodeCode">
<div class="type">Code:</div>
<pre>General
Complete name                            : 02. BTS Monuments Beyond The Star Episode 2 – Adolescence.mp4
Format                                   : MPEG-4
Format profile                           : Base Media
Codec ID                                 : isom (isom/dby1/iso2/avc1/mp41)
File size                                : 843 MiB
Duration                                 : 30 min 36 s
Overall bit rate mode                    : Variable
Overall bit rate                         : 3 850 kb/s
Frame rate                               : 23.976 FPS
Movie name                               : BTS Monuments: Beyond The Star - Episode 2 – Adolescence
Performer                                : BTS
Recorded date                            : 2023
Writing application                      : Lavf60.3.100
Cover                                    : Yes
Comment                                  : Download by liljaa

Video
ID                                       : 1
Format                                   : AVC
Format/Info                              : Advanced Video Codec
Format profile                           : High@L3.1
Format settings                          : CABAC / 4 Ref Frames
Format settings, CABAC                   : Yes
Format settings, Reference frames        : 4 frames
Codec ID                                 : avc1
Codec ID/Info                            : Advanced Video Coding
Duration                                 : 30 min 36 s
Bit rate mode                            : Variable
Bit rate                                 : 3 584 kb/s
Maximum bit rate                         : 6 375 kb/s
Width                                    : 1 280 pixels
Height                                   : 720 pixels
Display aspect ratio                     : 16:9
Frame rate mode                          : Constant
Frame rate                               : 23.976 (24000/1001) FPS
Color space                              : YUV
Chroma subsampling                       : 4:2:0
Bit depth                                : 8 bits
Scan type                                : Progressive
Bits/(Pixel*Frame)                       : 0.162
Time code of first frame                 : 00:00:00:0000000000
Stream size                              : 785 MiB (93%)
Title                                    : BAMTech video
Color range                              : Limited
Color primaries                          : BT.709
Transfer characteristics                 : BT.709
Matrix coefficients                      : BT.709
Codec configuration box                  : avcC

Audio
ID                                       : 3
Format                                   : E-AC-3
Format/Info                              : Enhanced AC-3
Commercial name                          : Dolby Digital Plus
Codec ID                                 : ec-3
Duration                                 : 30 min 36 s
Bit rate mode                            : Constant
Bit rate                                 : 256 kb/s
Channel(s)                               : 6 channels
Channel layout                           : L R C LFE Ls Rs
Sampling rate                            : 48.0 kHz
Frame rate                               : 31.250 FPS (1536 SPF)
Compression mode                         : Lossy
Stream size                              : 56.0 MiB (7%)
Title                                    : BAMTech audio / Korean
Language                                 : Korean
Service kind                             : Complete Main
Default                                  : Yes
Alternate group                          : 1

Text #1
ID                                       : 4
Format                                   : Timed Text
Muxing mode                              : sbtl
Codec ID                                 : tx3g
Duration                                 : 30 min 36 s
Bit rate mode                            : Variable
Bit rate                                 : 102 b/s
Frame rate                               : 0.622 FPS
Stream size                              : 22.8 KiB (0%)
Title                                    : Chinese (Traditional)
Language                                 : Chinese
Default                                  : No
Forced                                   : No
Alternate group                          : 3
Count of events                          : 571

Text #2
ID                                       : 5
Format                                   : Timed Text
Muxing mode                              : sbtl
Codec ID                                 : tx3g
Duration                                 : 30 min 36 s
Bit rate mode                            : Variable
Bit rate                                 : 101 b/s
Frame rate                               : 0.609 FPS
Stream size                              : 22.6 KiB (0%)
Title                                    : Dansk
Language                                 : Danish
Default                                  : No
Forced                                   : No
Alternate group                          : 3
Count of events                          : 559

Text #3
ID                                       : 6
Format                                   : Timed Text
Muxing mode                              : sbtl
Codec ID                                 : tx3g
Duration                                 : 30 min 36 s
Bit rate mode                            : Variable
Bit rate                                 : 104 b/s
Frame rate                               : 0.613 FPS
Stream size                              : 23.2 KiB (0%)
Title                                    : Deutsch
Language                                 : German
Default                                  : No
Forced                                   : No
Alternate group                          : 3
Count of events                          : 562

Text #4
ID                                       : 7
Format                                   : Timed Text
Muxing mode                              : sbtl
Codec ID                                 : tx3g
Duration                                 : 30 min 36 s
Bit rate mode                            : Variable
Bit rate                                 : 118 b/s
Frame rate                               : 0.663 FPS
Stream size                              : 26.4 KiB (0%)
Title                                    : English [CC]
Language                                 : English
Default                                  : No
Forced                                   : No
Alternate group                          : 3
Count of events                          : 608

Text #5
ID                                       : 8
Format                                   : Timed Text
Muxing mode                              : sbtl
Codec ID                                 : tx3g
Duration                                 : 30 min 36 s
Bit rate mode                            : Variable
Bit rate                                 : 103 b/s
Frame rate                               : 0.614 FPS
Stream size                              : 23.1 KiB (0%)
Title                                    : Español
Language                                 : Spanish
Default                                  : No
Forced                                   : No
Alternate group                          : 3
Count of events                          : 563

Text #6
ID                                       : 9
Format                                   : Timed Text
Muxing mode                              : sbtl
Codec ID                                 : tx3g
Duration                                 : 30 min 36 s
Bit rate mode                            : Variable
Bit rate                                 : 106 b/s
Frame rate                               : 0.602 FPS
Stream size                              : 23.7 KiB (0%)
Title                                    : Español (Latinoamericano)
Language                                 : Spanish
Default                                  : No
Forced                                   : No
Alternate group                          : 3
Count of events                          : 552

Text #7
ID                                       : 10
Format                                   : Timed Text
Muxing mode                              : sbtl
Codec ID                                 : tx3g
Duration                                 : 30 min 36 s
Bit rate mode                            : Variable
Bit rate                                 : 109 b/s
Frame rate                               : 0.613 FPS
Stream size                              : 24.4 KiB (0%)
Title                                    : Français
Language                                 : French
Default                                  : No
Forced                                   : No
Alternate group                          : 3
Count of events                          : 562

Text #8
ID                                       : 11
Format                                   : Timed Text
Muxing mode                              : sbtl
Codec ID                                 : tx3g
Duration                                 : 30 min 36 s
Bit rate mode                            : Variable
Bit rate                                 : 169 b/s
Frame rate                               : 0.616 FPS
Stream size                              : 37.9 KiB (0%)
Title                                    : Greek
Language                                 : Greek
Default                                  : No
Forced                                   : No
Alternate group                          : 3
Count of events                          : 565

Text #9
ID                                       : 12
Format                                   : Timed Text
Muxing mode                              : sbtl
Codec ID                                 : tx3g
Duration                                 : 30 min 36 s
Bit rate mode                            : Variable
Bit rate                                 : 99 b/s
Frame rate                               : 0.612 FPS
Stream size                              : 22.3 KiB (0%)
Title                                    : Italiano
Language                                 : Italian
Default                                  : No
Forced                                   : No
Alternate group                          : 3
Count of events                          : 561

Text #10
ID                                       : 13
Format                                   : Timed Text
Muxing mode                              : sbtl
Codec ID                                 : tx3g
Duration                                 : 30 min 36 s
Bit rate mode                            : Variable
Bit rate                                 : 103 b/s
Frame rate                               : 0.560 FPS
Stream size                              : 23.0 KiB (0%)
Title                                    : Japanese
Language                                 : Japanese
Default                                  : No
Forced                                   : No
Alternate group                          : 3
Count of events                          : 520

Text #11
ID                                       : 14
Format                                   : Timed Text
Muxing mode                              : sbtl
Codec ID                                 : tx3g
Duration                                 : 30 min 35 s
Bit rate mode                            : Variable
Bit rate                                 : 7 b/s
Frame rate                               : 0.040 FPS
Stream size                              : 1.55 KiB (0%)
Title                                    : ko--forced--
Language                                 : Korean
Default                                  : No
Forced                                   : No
Alternate group                          : 3
Count of events                          : 36

Text #12
ID                                       : 15
Format                                   : Timed Text
Muxing mode                              : sbtl
Codec ID                                 : tx3g
Duration                                 : 30 min 35 s
Bit rate mode                            : Variable
Bit rate                                 : 137 b/s
Frame rate                               : 0.698 FPS
Stream size                              : 30.7 KiB (0%)
Title                                    : Korean [CC]
Language                                 : Korean
Default                                  : No
Forced                                   : No
Alternate group                          : 3
Count of events                          : 640

Text #13
ID                                       : 16
Format                                   : Timed Text
Muxing mode                              : sbtl
Codec ID                                 : tx3g
Duration                                 : 30 min 36 s
Bit rate mode                            : Variable
Bit rate                                 : 110 b/s
Frame rate                               : 0.616 FPS
Stream size                              : 24.6 KiB (0%)
Title                                    : Magyar
Language                                 : Hungarian
Default                                  : No
Forced                                   : No
Alternate group                          : 3
Count of events                          : 565

Text #14
ID                                       : 17
Format                                   : Timed Text
Muxing mode                              : sbtl
Codec ID                                 : tx3g
Duration                                 : 30 min 36 s
Bit rate mode                            : Variable
Bit rate                                 : 105 b/s
Frame rate                               : 0.618 FPS
Stream size                              : 23.6 KiB (0%)
Title                                    : Nederlands
Language                                 : Dutch
Default                                  : No
Forced                                   : No
Alternate group                          : 3
Count of events                          : 567

Text #15
ID                                       : 18
Format                                   : Timed Text
Muxing mode                              : sbtl
Codec ID                                 : tx3g
Duration                                 : 30 min 36 s
Bit rate mode                            : Variable
Bit rate                                 : 99 b/s
Frame rate                               : 0.608 FPS
Stream size                              : 22.2 KiB (0%)
Title                                    : Norsk
Language                                 : Norwegian
Default                                  : No
Forced                                   : No
Alternate group                          : 3
Count of events                          : 558

Text #16
ID                                       : 19
Format                                   : Timed Text
Muxing mode                              : sbtl
Codec ID                                 : tx3g
Duration                                 : 30 min 36 s
Bit rate mode                            : Variable
Bit rate                                 : 100 b/s
Frame rate                               : 0.615 FPS
Stream size                              : 22.4 KiB (0%)
Title                                    : Polski
Language                                 : Polish
Default                                  : No
Forced                                   : No
Alternate group                          : 3
Count of events                          : 564

Text #17
ID                                       : 20
Format                                   : Timed Text
Muxing mode                              : sbtl
Codec ID                                 : tx3g
Duration                                 : 30 min 36 s
Bit rate mode                            : Variable
Bit rate                                 : 99 b/s
Frame rate                               : 0.615 FPS
Stream size                              : 22.3 KiB (0%)
Title                                    : Português
Language                                 : Portuguese
Default                                  : No
Forced                                   : No
Alternate group                          : 3
Count of events                          : 564

Text #18
ID                                       : 21
Format                                   : Timed Text
Muxing mode                              : sbtl
Codec ID                                 : tx3g
Duration                                 : 30 min 36 s
Bit rate mode                            : Variable
Bit rate                                 : 101 b/s
Frame rate                               : 0.613 FPS
Stream size                              : 22.6 KiB (0%)
Title                                    : Português (Brasil)
Language                                 : Portuguese
Default                                  : No
Forced                                   : No
Alternate group                          : 3
Count of events                          : 562

Text #19
ID                                       : 22
Format                                   : Timed Text
Muxing mode                              : sbtl
Codec ID                                 : tx3g
Duration                                 : 30 min 36 s
Bit rate mode                            : Variable
Bit rate                                 : 110 b/s
Frame rate                               : 0.616 FPS
Stream size                              : 24.6 KiB (0%)
Title                                    : Română
Language                                 : Romanian
Default                                  : No
Forced                                   : No
Alternate group                          : 3
Count of events                          : 565

Text #20
ID                                       : 23
Format                                   : Timed Text
Muxing mode                              : sbtl
Codec ID                                 : tx3g
Duration                                 : 30 min 36 s
Bit rate mode                            : Variable
Bit rate                                 : 113 b/s
Frame rate                               : 0.614 FPS
Stream size                              : 25.3 KiB (0%)
Title                                    : Slovenčina
Language                                 : Slovak
Default                                  : No
Forced                                   : No
Alternate group                          : 3
Count of events                          : 563

Text #21
ID                                       : 24
Format                                   : Timed Text
Muxing mode                              : sbtl
Codec ID                                 : tx3g
Duration                                 : 30 min 36 s
Bit rate mode                            : Variable
Bit rate                                 : 103 b/s
Frame rate                               : 0.616 FPS
Stream size                              : 23.1 KiB (0%)
Title                                    : Suomi
Language                                 : Finnish
Default                                  : No
Forced                                   : No
Alternate group                          : 3
Count of events                          : 565

Text #22
ID                                       : 25
Format                                   : Timed Text
Muxing mode                              : sbtl
Codec ID                                 : tx3g
Duration                                 : 30 min 36 s
Bit rate mode                            : Variable
Bit rate                                 : 96 b/s
Frame rate                               : 0.597 FPS
Stream size                              : 21.4 KiB (0%)
Title                                    : Svenska
Language                                 : Swedish
Default                                  : Yes
Forced                                   : No
Alternate group                          : 3
Count of events                          : 548

Text #23
ID                                       : 26
Format                                   : Timed Text
Muxing mode                              : sbtl
Codec ID                                 : tx3g
Duration                                 : 30 min 36 s
Bit rate mode                            : Variable
Bit rate                                 : 109 b/s
Frame rate                               : 0.615 FPS
Stream size                              : 24.5 KiB (0%)
Title                                    : Türkçe
Language                                 : Turkish
Default                                  : No
Forced                                   : No
Alternate group                          : 3
Count of events                          : 564

Text #24
ID                                       : 27
Format                                   : Timed Text
Muxing mode                              : sbtl
Codec ID                                 : tx3g
Duration                                 : 30 min 36 s
Bit rate mode                            : Variable
Bit rate                                 : 103 b/s
Frame rate                               : 0.616 FPS
Stream size                              : 23.1 KiB (0%)
Title                                    : Čeština
Language                                 : Czech
Default                                  : No
Forced                                   : No
Alternate group                          : 3
Count of events                          : 565
</pre>
</div></div>
</div><br>
<div class="bbCodeBlock bbCodeVfcHH HiddenContent">
<div class="attribution type">Hidden Content:</div>
<blockquote>You must either reply or click 'Like' to see the hidden information contained here.</blockquote>
</div>
<div class="messageTextEndMarker">&nbsp;</div>
</blockquote>
</article>]]></description>
                <author><![CDATA[Liljaa]]></author>
                </item>

                
                <item>
                <title><![CDATA[【BLU-RAY】BDRiP - Willie Nelson - Long Story Short Willie Nelson 90 (2023) BDRip 1080p]]></title>
                <link><![CDATA[https://sharemania.us/threads/willie-nelson-long-story-short-willie-nelson-90-2023-bdrip-1080p.234314/]]></link>
                <description><![CDATA[<article>
<blockquote class="messageText SelectQuoteContainer ugc baseHtml">
<div style="text-align: center">Willie Nelson - Long Story Short Willie Nelson 90 (2023) BDRip 1080p<br>
<br>
<img src="https://imageup.ru/img113/4673028/wn.jpg" class="bbCodeImage LbImage" alt="[​IMG]" data-url="https://imageup.ru/img113/4673028/wn.jpg" style=""><br>
<br>
Screenshots:<br>
<img src="https://imageup.ru/img158/4673246/01.jpg" class="bbCodeImage LbImage" alt="[​IMG]" data-url="https://imageup.ru/img158/4673246/01.jpg" style=""><br>
<br>
Setlist:<br>
01 - Whiskey River<br>
02 - Yesterday's Wine<br>
03 - Seven Spanish Angels<br>
04 - Remember Me (When The Candle Lights Are Gleaming)<br>
05 - Die When I'm High (Halfway To Heaven)<br>
06 - Georgia On A Fast Train<br>
07 - It Ain't Over Yet<br>
08 - Hello Walls<br>
09 - Hands On The Wheel<br>
10 - Midnight Rider<br>
11 - Loving Her Was Easier (Than Anything I'll Ever Do Again)<br>
12 - Funny How Time Slips Away<br>
13 - Angel Flying Too Close To The Ground<br>
14 - City Of New Orleans<br>
15 - Stardust<br>
16 - Will You Remember Mine<br>
17 - Something You Get Throug<br>
18 - California Sober<br>
19 - Down Yonder<br>
20 - Pick Up The Tempo<br>
21 - Pretty Paper<br>
22 - Time Of The Preacher<br>
23 - Night Life<br>
24 - Texas Flood<br>
25 - Opportunity To Cry<br>
26 - Blue Eyes Crying In The Rain<br>
27 - Willie Got Me Stoned<br>
28 - Georgia On My Mind<br>
29 - Mammas Don't Let Your Babies Grow Up To Be Cowboys<br>
30 - Always On My Mind<br>
31 - Are There Any More Real Cowboys ?<br>
32 - Far Away Places<br>
33 - Pancho &amp; Lefty<br>
34 - Roll Me Up And Smoke Me When I Die<br>
35 - We Had It All<br>
36 - On The Road Again / Happy Birthday<br>
Bonus Tracks<br>
37 - Cowboys Are Frequently Secretly Fond Of Each Other<br>
38 - Me And Paul<br>
39 - Still Is Still Moving To Me<br>
<br>
Info:<br>
Genre: Folk | Country<br>
Quality: BDRip | 1080p<br>
Format: MKV | 8353kbps<br>
Length: 02:49:11 + 00:14:38 | 14.3Gb<br>
Video: H.264 | 1920x1080 | 16:9 | 23.976fps<br>
Audio 1: LPCM | 2304kbps | 48kHz | 2 channels: L R<br>
Audio 2: AC3 | 640kbps | 48kHz | 6 channels: Front: L C R, Surround: L R <br>
Language: English<br>
<br>
Download:<br>
Rapidgator.net, Uploadgig.com, Drop.download<br>
<div class="bbCodeBlock bbCodeVfcHH HiddenContent">
<div class="attribution type">Hidden Content:</div>
<blockquote>You must either reply or click 'Like' to see the hidden information contained here.</blockquote>
</div><br>
​</div>
<div class="messageTextEndMarker">&nbsp;</div>
</blockquote>
</article>]]></description>
                <author><![CDATA[barboss]]></author>
                </item>

                
                <item>
                <title><![CDATA[【HD Live Performances】HDTV - VA - Musikladen-59 1981-01-15 (2023) HDTV]]></title>
                <link><![CDATA[https://sharemania.us/threads/va-musikladen-59-1981-01-15-2023-hdtv.234317/]]></link>
                <description><![CDATA[<article>
<blockquote class="messageText SelectQuoteContainer ugc baseHtml">
<div style="text-align: center">VA - Musikladen-59 1981-01-15 (2023) HDTV<br>
<br>
<img src="https://imageup.ru/img266/4673064/ml59.jpg" class="bbCodeImage LbImage" alt="[​IMG]" data-url="https://imageup.ru/img266/4673064/ml59.jpg" style=""><br>
<br>
Screenshots:<br>
<img src="https://imageup.ru/img126/4673065/musikladen-591981-01-15hdtvalexa.jpg" class="bbCodeImage LbImage" alt="[​IMG]" data-url="https://imageup.ru/img126/4673065/musikladen-591981-01-15hdtvalexa.jpg" style=""><br>
<br>
Setlist:<br>
01 - THE DAYS - "STICK IN BETWEEN"<br>
02 - THE GAP BAND - "BURN RUBBER"<br>
03 - CHRISSY - "MARK MY WORDS"<br>
04 - SASKIA &amp; SERGE - "MAMA HE'S A SOLDIER NOW"<br>
05 - BISQUIT - "ROLLER BOOGIE"<br>
06 - ARABESQUE - "MARIGOT BAY"<br>
07 - THE SHADOWS - "EQUINOXE (PART V)"<br>
08 - MOTORHEAD - "ACE OF SPADES"<br>
09 - QUEEN - "FLASH" (Video)<br>
10 - RETTORE - "KOBRA"<br>
11 - DARTS - "PEACHES"<br>
12 - DAVID DUNDAS - "JEANS ON" (Oldie: Musikladen September 1976)<br>
13 - JOE &gt;&gt;KING&lt;&lt; CARRASCO &amp; THE CROWNS - "BUENA"<br>
<br>
Info:<br>
Source:<br>
<img src="https://imageup.ru/img252/3879965/rbbhd.jpg" class="bbCodeImage LbImage" alt="[​IMG]" data-url="https://imageup.ru/img252/3879965/rbbhd.jpg" style=""><br>
Lineage: Vu+Solo2 DVB-S2 satellite receiver -&gt; HDD -&gt; Avidemux -&gt; .mkv file format<br>
Genre: Rock | Pop | Disco<br>
Quality: HDTV | 720p<br>
Format: TS | 13.5Mbps<br>
Length: 00:43:50 | 4.66Gb<br>
Video: H.264 | 1280x720 | 16:9 | 50.000fps<br>
Audio 1: AC3 | 384kbps | 48kHz | 2 channels: L R<br>
Audio 2: MP2 | 192kbps | 48kHz | 2 channels: L R<br>
Language: English<br>
<br>
Capped by me<br>
<br>
Download:<br>
Rapidgator.net, Uploadgig.com, Ddownload.com<br>
<div class="bbCodeBlock bbCodeVfcHH HiddenContent">
<div class="attribution type">Hidden Content:</div>
<blockquote>You must either reply or click 'Like' to see the hidden information contained here.</blockquote>
</div><br>
​</div>
<div class="messageTextEndMarker">&nbsp;</div>
</blockquote>
</article>]]></description>
                <author><![CDATA[barboss]]></author>
                </item>

                
                <item>
                <title><![CDATA[【HD Live Performances】HDTV - Enola Gay - Live in Köln (2023) HDTV]]></title>
                <link><![CDATA[https://sharemania.us/threads/enola-gay-live-in-k%C3%B6ln-2023-hdtv.234311/]]></link>
                <description><![CDATA[<article>
<blockquote class="messageText SelectQuoteContainer ugc baseHtml">
<div style="text-align: center">Enola Gay - Live in Köln (2023) HDTV<br>
<br>
<img src="https://imageup.ru/img62/4673030/np.jpg" class="bbCodeImage LbImage" alt="[​IMG]" data-url="https://imageup.ru/img62/4673030/np.jpg" style=""><br>
<br>
Screenshots:<br>
<img src="https://imageup.ru/img97/4673031/enga.jpg" class="bbCodeImage LbImage" alt="[​IMG]" data-url="https://imageup.ru/img97/4673031/enga.jpg" style=""><br>
<br>
Setlist:<br>
01. Cortana<br>
02. Salt<br>
03. Sofa Surfing<br>
04. Malone<br>
05. Naked Names<br>
06. Leeches<br>
07. The Birth Of A Nation<br>
08. Figures<br>
09. Cold<br>
10. Terra Firma<br>
11. Pts.Dup<br>
12. Scrappers<br>
13. Knives Out<br>
14. For God &amp; For Ulster<br>
<br>
Info:<br>
Source:<br>
<img src="http://www.imageup.ru/img86/2398856/wdr-hd.png" class="bbCodeImage LbImage" alt="[​IMG]" data-url="http://www.imageup.ru/img86/2398856/wdr-hd.png" style=""><br>
Lineage: Vu+Solo2 DVB-S2 satellite receiver -&gt; HDD -&gt; Videoredo TV Suite 4 -&gt; .ts file format<br>
Genre: Noise Punk<br>
Quality: HDTV | 720p<br>
Format: TS | 14.7Mbps<br>
Length: 00:58:30 | 6.73Gb<br>
Video: H.264 | 1280x720 | 16:9 | 50.000fps<br>
Audio 1: AC3 | 448kbps | 48kHz | 2 channels: L R<br>
Audio 2: MP2 | 256kbps | 48kHz | 2 channels: L R<br>
Language: English<br>
<br>
Capped by me<br>
<br>
Download:<br>
Rapidgator.net, Uploadgig.com, Ddownload.com<br>
<div class="bbCodeBlock bbCodeVfcHH HiddenContent">
<div class="attribution type">Hidden Content:</div>
<blockquote>You must either reply or click 'Like' to see the hidden information contained here.</blockquote>
</div><br>
​</div>
<div class="messageTextEndMarker">&nbsp;</div>
</blockquote>
</article>]]></description>
                <author><![CDATA[barboss]]></author>
                </item>

                
                <item>
                <title><![CDATA[【BLU-RAY】BLU-RAY - Willie Nelson - Long Story Short Willie Nelson 90 (2023) Blu-Ray]]></title>
                <link><![CDATA[https://sharemania.us/threads/willie-nelson-long-story-short-willie-nelson-90-2023-blu-ray.234313/]]></link>
                <description><![CDATA[<article>
<blockquote class="messageText SelectQuoteContainer ugc baseHtml">
<div style="text-align: center">Willie Nelson - Long Story Short Willie Nelson 90 (2023) Blu-Ray 1080p<br>
<br>
<img src="https://imageup.ru/img113/4673028/wn.jpg" class="bbCodeImage LbImage" alt="[​IMG]" data-url="https://imageup.ru/img113/4673028/wn.jpg" style=""><br>
<br>
Screenshots:<br>
<img src="https://imageup.ru/img176/4673245/00006_idx.jpg" class="bbCodeImage LbImage" alt="[​IMG]" data-url="https://imageup.ru/img176/4673245/00006_idx.jpg" style=""><br>
<br>
Setlist:<br>
01 - Whiskey River<br>
02 - Yesterday's Wine<br>
03 - Seven Spanish Angels<br>
04 - Remember Me (When The Candle Lights Are Gleaming)<br>
05 - Die When I'm High (Halfway To Heaven)<br>
06 - Georgia On A Fast Train<br>
07 - It Ain't Over Yet<br>
08 - Hello Walls<br>
09 - Hands On The Wheel<br>
10 - Midnight Rider<br>
11 - Loving Her Was Easier (Than Anything I'll Ever Do Again)<br>
12 - Funny How Time Slips Away<br>
13 - Angel Flying Too Close To The Ground<br>
14 - City Of New Orleans<br>
15 - Stardust<br>
16 - Will You Remember Mine<br>
17 - Something You Get Throug<br>
18 - California Sober<br>
19 - Down Yonder<br>
20 - Pick Up The Tempo<br>
21 - Pretty Paper<br>
22 - Time Of The Preacher<br>
23 - Night Life<br>
24 - Texas Flood<br>
25 - Opportunity To Cry<br>
26 - Blue Eyes Crying In The Rain<br>
27 - Willie Got Me Stoned<br>
28 - Georgia On My Mind<br>
29 - Mammas Don't Let Your Babies Grow Up To Be Cowboys<br>
30 - Always On My Mind<br>
31 - Are There Any More Real Cowboys ?<br>
32 - Far Away Places<br>
33 - Pancho &amp; Lefty<br>
34 - Roll Me Up And Smoke Me When I Die<br>
35 - We Had It All<br>
36 - On The Road Again / Happy Birthday<br>
Bonus Tracks<br>
37 - Cowboys Are Frequently Secretly Fond Of Each Other<br>
38 - Me And Paul<br>
39 - Still Is Still Moving To Me<br>
<br>
About: Long Story Short: Willie Nelson 90, which took place on Saturday and Sunday, April 29 and 30 2023, at the legendary Hollywood Bowl was one of the biggest music events of the year. The sold-out two-day event included performances by over 50 artists over four hours each night including Willie Nelson, Allison Russell, Beck, Billy Strings, Bobby Weir, Booker T. Jones, Buddy Cannon, Charley Crockett, Charlie Sexton, Chris Stapleton.<br>
<br>
Info:<br>
Genre: Folk | Country<br>
Quality: Blu-Ray | 1080p<br>
Format: M2TS | 24.0Mbps<br>
Length: 02:49:11 + 00:14:38 | 39.4Gb<br>
Video: H.264 | 1920x1080 | 16:9 | 23.976fps<br>
Audio 1: LPCM | 2304kbps | 48kHz | 2 channels: L R<br>
Audio 2: Dolby TrueHD | 1527kbps | 48kHz | 6 channels: Front: L C R, Surround: L R <br>
Language: English<br>
<br>
Download:<br>
Rapidgator.net, Uploadgig.com, Drop.download<br>
<div class="bbCodeBlock bbCodeVfcHH HiddenContent">
<div class="attribution type">Hidden Content:</div>
<blockquote>You must either reply or click 'Like' to see the hidden information contained here.</blockquote>
</div></div>
<div class="messageTextEndMarker">&nbsp;</div>
</blockquote>
</article>]]></description>
                <author><![CDATA[barboss]]></author>
                </item>

                
                <item>
                <title><![CDATA[【Singles (lossless)】FLAC - Mijoo - «Curiosity» [FLAC 24Bit/96kHz]]]></title>
                <link><![CDATA[https://sharemania.us/threads/mijoo-%C2%ABcuriosity%C2%BB-flac-24bit-96khz.234315/]]></link>
                <description><![CDATA[<article>
<blockquote class="messageText SelectQuoteContainer ugc baseHtml">
<div style="text-align: center"><img src="https://i.imgur.com/QVoAZ69.jpg" class="bbCodeImage LbImage" alt="[​IMG]" data-url="https://i.imgur.com/QVoAZ69.jpg" style=""> <br>
<br>
<span data-s9e-mediaembed="youtube" style="display:inline-block;width:100%;max-width:640px"><span style="display:block;overflow:hidden;position:relative;padding-bottom:56.25%"><iframe allowfullscreen="" loading="lazy" scrolling="no" style="background:url(https://i.ytimg.com/vi/4bMDdb-rL8s/hqdefault.jpg) 50% 50% / cover;border:0;height:100%;left:0;position:absolute;width:100%" src="https://www.youtube.com/embed/4bMDdb-rL8s"></iframe></span></span><br>
<br>
<span data-s9e-mediaembed="spotify" style="display:inline-block;width:100%;max-width:320px"><span style="display:block;overflow:hidden;position:relative;padding-bottom:125%;padding-bottom:calc(100% + 80px)"><iframe allow="encrypted-media" allowfullscreen="" loading="lazy" scrolling="no" src="https://open.spotify.com/embed/album/3DKezdDevdEAMi3gT3czOt" style="border:0;height:100%;left:0;position:absolute;width:100%"></iframe></span></span><br>
<br>
<div class="bbCodeBlock bbCodeVfcHH HiddenContent">
<div class="attribution type">Hidden Content:</div>
<blockquote>You must either reply or click 'Like' to see the hidden information contained here.</blockquote>
</div></div>
<div class="messageTextEndMarker">&nbsp;</div>
</blockquote>
</article>]]></description>
                <author><![CDATA[WithLoveSNSD]]></author>
                </item>

                
                <item>
                <title><![CDATA[【HD Live Performances】HDTV - Anika Nilles &amp; Nevell - 44 Leverkusener Jazztage (2023) HDTV]]></title>
                <link><![CDATA[https://sharemania.us/threads/anika-nilles-nevell-44-leverkusener-jazztage-2023-hdtv.234316/]]></link>
                <description><![CDATA[<article>
<blockquote class="messageText SelectQuoteContainer ugc baseHtml">
thanks
<div class="messageTextEndMarker">&nbsp;</div>
</blockquote>
</article>]]></description>
                <author><![CDATA[barboss]]></author>
                </item>

                </channel></rss>